<!--?xml version="1.0" standalone="no"?-->
<svg id="sw-js-blob-svg" viewBox="0 0 100 100" xmlns="http://www.w3.org/2000/svg" version="1.1">
    <defs> 
        <linearGradient id="sw-gradient" x1="0" x2="1" y1="1" y2="0">
            <stop id="stop1" stop-color="rgba(31, 182, 94, 1)" offset="0%"></stop>
            <stop id="stop2" stop-color="rgba(31.259, 220.919, 63.516, 1)" offset="100%"></stop>
        </linearGradient>
    </defs>
<path fill="url(#sw-gradient)" d="M28.8,-31C36.4,-28,40.9,-18,42.7,-7.5C44.6,2.9,43.7,13.8,38.8,22.5C33.9,31.2,25,37.7,15.2,40.9C5.4,44.1,-5.3,44,-13.2,39.6C-21.1,35.3,-26.1,26.6,-27.1,18.7C-28,10.7,-24.8,3.5,-24,-4.8C-23.3,-13.1,-25,-22.4,-21.4,-26.1C-17.8,-29.8,-8.9,-27.9,0.9,-29C10.6,-30,21.3,-34,28.8,-31Z" width="100%" height="100%" transform="translate(50 50)" stroke-width="0" style="transition: all 0.3s ease 0s;" stroke="url(#sw-gradient)"></path>
</svg>