<!--?xml version="1.0" standalone="no"?-->
<svg id="sw-js-blob-svg" viewBox="0 0 100 100" xmlns="http://www.w3.org/2000/svg" version="1.1">
    <defs> 
        <linearGradient id="sw-gradient" x1="0" x2="1" y1="1" y2="0">
            <stop id="stop1" stop-color="rgba(31, 182, 94, 1)" offset="0%"></stop>
            <stop id="stop2" stop-color="rgba(31.259, 220.919, 63.516, 1)" offset="100%"></stop>
        </linearGradient>
    </defs>
<path fill="url(#sw-gradient)" d="M13.5,-19.8C17.8,-12.6,21.6,-8.5,24.3,-2.9C27,2.8,28.6,10.1,26.8,17.7C25.1,25.3,20,33.2,12.8,36.4C5.5,39.5,-3.9,38,-11.1,33.9C-18.3,29.8,-23.3,23.1,-28.6,15.7C-34,8.3,-39.6,0.2,-37.1,-5.3C-34.7,-10.8,-24.2,-13.5,-16.7,-20.2C-9.1,-26.9,-4.6,-37.4,0,-37.4C4.6,-37.5,9.3,-27,13.5,-19.8Z" width="100%" height="100%" transform="translate(50 50)" stroke-width="0" style="transition: all 0.3s ease 0s;" stroke="url(#sw-gradient)"></path>
</svg>