<!--?xml version="1.0" standalone="no"?-->
<svg id="sw-js-blob-svg" viewBox="0 0 100 100" xmlns="http://www.w3.org/2000/svg" version="1.1">
    <defs> 
        <linearGradient id="sw-gradient" x1="0" x2="1" y1="1" y2="0">
            <stop id="stop1" stop-color="rgba(31, 182, 94, 1)" offset="0%"></stop>
            <stop id="stop2" stop-color="rgba(31.259, 220.919, 63.516, 1)" offset="100%"></stop>
        </linearGradient>
    </defs>
<path fill="url(#sw-gradient)" d="M12.8,-17.4C16.5,-12.1,19.5,-8,23.4,-1.8C27.2,4.4,31.9,12.8,30.1,18.9C28.4,25,20.2,28.9,11.6,32.1C3.1,35.3,-5.8,37.8,-11.3,34.4C-16.8,31,-19,21.6,-21.3,14C-23.6,6.5,-26.1,0.7,-27.9,-7.7C-29.7,-16,-30.8,-27,-26,-32.2C-21.3,-37.4,-10.6,-36.7,-3.1,-33.1C4.5,-29.4,9,-22.8,12.8,-17.4Z" width="100%" height="100%" transform="translate(50 50)" stroke-width="0" style="transition: all 0.3s ease 0s;" stroke="url(#sw-gradient)"></path>
</svg>