<!--?xml version="1.0" standalone="no"?-->
<svg id="sw-js-blob-svg" viewBox="0 0 100 100" xmlns="http://www.w3.org/2000/svg" version="1.1">
    <defs> 
        <linearGradient id="sw-gradient" x1="0" x2="1" y1="1" y2="0">
            <stop id="stop1" stop-color="rgba(31, 182, 94, 1)" offset="0%"></stop>
            <stop id="stop2" stop-color="rgba(31.259, 220.919, 63.516, 1)" offset="100%"></stop>
        </linearGradient>
    </defs>
<path fill="url(#sw-gradient)" d="M21.8,-24.8C27,-21.5,29.4,-13.5,30.7,-5.5C32.1,2.6,32.5,10.8,29,16.7C25.5,22.6,18.2,26.3,10.7,28.8C3.2,31.2,-4.5,32.4,-10.4,29.8C-16.4,27.1,-20.5,20.7,-23.7,14.2C-26.8,7.7,-28.9,1.1,-28.8,-6C-28.7,-13.2,-26.4,-20.9,-21.2,-24.2C-16,-27.5,-8,-26.4,0.1,-26.6C8.2,-26.7,16.5,-28.1,21.8,-24.8Z" width="100%" height="100%" transform="translate(50 50)" stroke-width="0" style="transition: all 0.3s ease 0s;" stroke="url(#sw-gradient)"></path>
</svg>