<!--?xml version="1.0" standalone="no"?-->
<svg id="sw-js-blob-svg" viewBox="0 0 100 100" xmlns="http://www.w3.org/2000/svg" version="1.1">
    <defs> 
        <linearGradient id="sw-gradient" x1="0" x2="1" y1="1" y2="0">
            <stop id="stop1" stop-color="rgba(31, 182, 94, 1)" offset="0%"></stop>
            <stop id="stop2" stop-color="rgba(31.259, 220.919, 63.516, 1)" offset="100%"></stop>
        </linearGradient>
    </defs>
<path fill="url(#sw-gradient)" d="M23.6,-29.7C29.2,-23.3,31.5,-14.7,34.2,-5.2C36.9,4.3,39.9,14.5,36.8,22.7C33.8,30.9,24.8,37.2,15,40.3C5.2,43.5,-5.4,43.7,-11.1,38.2C-16.8,32.8,-17.6,21.7,-20.4,13.4C-23.2,5.1,-28.1,-0.3,-29.3,-7.1C-30.4,-13.9,-27.9,-22,-22.3,-28.4C-16.8,-34.8,-8.4,-39.5,0.3,-39.8C9,-40.1,17.9,-36.1,23.6,-29.7Z" width="100%" height="100%" transform="translate(50 50)" stroke-width="0" style="transition: all 0.3s ease 0s;" stroke="url(#sw-gradient)"></path>
</svg>