<!--?xml version="1.0" standalone="no"?-->
<svg id="sw-js-blob-svg" viewBox="0 0 100 100" xmlns="http://www.w3.org/2000/svg" version="1.1">
    <defs> 
        <linearGradient id="sw-gradient" x1="0" x2="1" y1="1" y2="0">
            <stop id="stop1" stop-color="rgba(31, 182, 94, 1)" offset="0%"></stop>
            <stop id="stop2" stop-color="rgba(31.259, 220.919, 63.516, 1)" offset="100%"></stop>
        </linearGradient>
    </defs>
<path fill="url(#sw-gradient)" d="M21.2,-22.8C28.8,-18.9,37.1,-13.5,36.8,-7.6C36.5,-1.8,27.5,4.5,22.5,12.7C17.4,20.9,16.2,31,11.9,32.5C7.6,34,0.2,26.8,-9,23.9C-18.3,20.9,-29.5,22.2,-35.6,17.6C-41.8,13.1,-42.8,2.7,-39.4,-5.3C-36,-13.2,-28.1,-18.6,-20.8,-22.5C-13.4,-26.5,-6.7,-28.9,0.1,-29C6.8,-29.1,13.7,-26.7,21.2,-22.8Z" width="100%" height="100%" transform="translate(50 50)" stroke-width="0" style="transition: all 0.3s ease 0s;" stroke="url(#sw-gradient)"></path>
</svg>