<!--?xml version="1.0" standalone="no"?-->
<svg id="sw-js-blob-svg" viewBox="0 0 100 100" xmlns="http://www.w3.org/2000/svg" version="1.1">
    <defs> 
        <linearGradient id="sw-gradient" x1="0" x2="1" y1="1" y2="0">
            <stop id="stop1" stop-color="rgba(31, 182, 94, 1)" offset="0%"></stop>
            <stop id="stop2" stop-color="rgba(31.259, 220.919, 63.516, 1)" offset="100%"></stop>
        </linearGradient>
    </defs>
<path fill="url(#sw-gradient)" d="M15,-20.2C19.2,-14.3,22.1,-9.4,24.1,-3.5C26.1,2.4,27.1,9.3,24.1,13.4C21.2,17.6,14.3,18.9,8,20.7C1.7,22.5,-4.1,24.7,-11.5,24.9C-19,25.1,-28.2,23.3,-34.3,17.5C-40.5,11.6,-43.6,1.7,-40.2,-5.3C-36.9,-12.3,-27,-16.3,-19.2,-21.5C-11.4,-26.7,-5.7,-33.1,-0.2,-32.9C5.4,-32.7,10.8,-26,15,-20.2Z" width="100%" height="100%" transform="translate(50 50)" stroke-width="0" style="transition: all 0.3s ease 0s;" stroke="url(#sw-gradient)"></path>
</svg>