<!--?xml version="1.0" standalone="no"?-->
<svg id="sw-js-blob-svg" viewBox="0 0 100 100" xmlns="http://www.w3.org/2000/svg" version="1.1">
    <defs> 
        <linearGradient id="sw-gradient" x1="0" x2="1" y1="1" y2="0">
            <stop id="stop1" stop-color="rgba(31, 182, 94, 1)" offset="0%"></stop>
            <stop id="stop2" stop-color="rgba(31.259, 220.919, 63.516, 1)" offset="100%"></stop>
        </linearGradient>
    </defs>
<path fill="url(#sw-gradient)" d="M17.9,-21.8C24.7,-15.5,33,-11.4,35.5,-5C38.1,1.3,35,9.9,30.9,18.6C26.8,27.3,21.6,36.2,15.1,36.4C8.5,36.7,0.7,28.3,-8.1,24.2C-16.9,20.2,-26.5,20.5,-33.1,15.9C-39.7,11.2,-43.2,1.5,-42.3,-8.1C-41.4,-17.7,-36,-27.1,-28.2,-33.1C-20.4,-39.2,-10.2,-41.9,-2.4,-39.1C5.5,-36.3,11,-28,17.9,-21.8Z" width="100%" height="100%" transform="translate(50 50)" stroke-width="0" style="transition: all 0.3s ease 0s;" stroke="url(#sw-gradient)"></path>
</svg>