<!--?xml version="1.0" standalone="no"?-->
<svg id="sw-js-blob-svg" viewBox="0 0 100 100" xmlns="http://www.w3.org/2000/svg" version="1.1">
    <defs> 
        <linearGradient id="sw-gradient" x1="0" x2="1" y1="1" y2="0">
            <stop id="stop1" stop-color="rgba(31, 182, 94, 1)" offset="0%"></stop>
            <stop id="stop2" stop-color="rgba(31.259, 220.919, 63.516, 1)" offset="100%"></stop>
        </linearGradient>
    </defs>
<path fill="url(#sw-gradient)" d="M24,-30.6C29.1,-24.3,29.8,-14.8,31.9,-5.3C34,4.2,37.4,13.9,33.5,18.1C29.6,22.3,18.4,21,9.1,24.1C-0.3,27.1,-7.7,34.5,-13.1,33.6C-18.4,32.7,-21.6,23.5,-23.8,15.7C-26.1,7.9,-27.3,1.4,-26.5,-4.9C-25.7,-11.3,-22.8,-17.5,-18,-23.9C-13.2,-30.3,-6.6,-36.9,1.4,-38.6C9.4,-40.3,18.9,-37,24,-30.6Z" width="100%" height="100%" transform="translate(50 50)" stroke-width="0" style="transition: all 0.3s ease 0s;" stroke="url(#sw-gradient)"></path>
</svg>