<!--?xml version="1.0" standalone="no"?-->
<svg id="sw-js-blob-svg" viewBox="0 0 100 100" xmlns="http://www.w3.org/2000/svg" version="1.1">
    <defs> 
        <linearGradient id="sw-gradient" x1="0" x2="1" y1="1" y2="0">
            <stop id="stop1" stop-color="rgba(31, 182, 94, 1)" offset="0%"></stop>
            <stop id="stop2" stop-color="rgba(31.259, 220.919, 63.516, 1)" offset="100%"></stop>
        </linearGradient>
    </defs>
<path fill="url(#sw-gradient)" d="M20.3,-26.2C24.8,-20.5,25.7,-12.6,27,-4.8C28.3,2.9,29.9,10.6,27.6,17.1C25.2,23.7,18.9,29.2,12.4,29.7C5.8,30.3,-1,25.9,-9.5,23.8C-18,21.7,-28.2,21.9,-34.4,17C-40.6,12.1,-42.8,2.1,-40.3,-6.2C-37.7,-14.4,-30.4,-20.9,-22.9,-26.1C-15.4,-31.2,-7.7,-35,0.1,-35.2C7.9,-35.3,15.9,-31.9,20.3,-26.2Z" width="100%" height="100%" transform="translate(50 50)" stroke-width="0" style="transition: all 0.3s ease 0s;" stroke="url(#sw-gradient)"></path>
</svg>